<?xml version="1.0" encoding="UTF-8" standalone="no"?>
<svg
   xmlns:dc="http://purl.org/dc/elements/1.1/"
   xmlns:cc="http://creativecommons.org/ns#"
   xmlns:rdf="http://www.w3.org/1999/02/22-rdf-syntax-ns#"
   xmlns:svg="http://www.w3.org/2000/svg"
   xmlns="http://www.w3.org/2000/svg"
   width="210mm"
   height="297mm"
   viewBox="0 0 210 297"
   version="1.1"
   id="svg8">
  <defs
     id="defs2" />
  <metadata
     id="metadata5">
    <rdf:RDF>
      <cc:Work
         rdf:about="">
        <dc:format>image/svg+xml</dc:format>
        <dc:type
           rdf:resource="http://purl.org/dc/dcmitype/StillImage" />
        <dc:title></dc:title>
      </cc:Work>
    </rdf:RDF>
  </metadata>
  <g
     id="layer1">
    <g
       id="g852"
       transform="matrix(0.26458333,0,0,0.26458333,37.745923,42.123376)"
       style="opacity:1">
      <circle
         cx="176"
         cy="416"
         r="32"
         id="circle835" />
      <circle
         cx="400"
         cy="416"
         r="32"
         id="circle837" />
      <path
         id="path839"
         d="M 190.66211 223.20703 A 16 16 0 0 0 190.66211 255.20703 L 241.24219 255.20703 L 286.90234 513.98633 A 16 16 0 0 0 302.66211 527.20703 L 558.66211 527.20703 A 16 16 0 0 0 558.66211 495.20703 L 316.08203 495.20703 L 310.44141 463.20703 L 552.10156 463.20703 A 24.07 24.07 0 0 0 575.66211 443.91602 L 604.46094 299.91602 A 24 24 0 0 0 599.46094 279.98633 A 23.92 23.92 0 0 0 580.90234 271.20703 L 276.55078 271.20703 L 270.42188 236.42578 A 16 16 0 0 0 254.66211 223.20703 L 190.66211 223.20703 z M 278.76562 297.72461 L 553.12891 297.72461 C 558.28646 297.71549 563.17291 300.02862 566.4375 304.02148 C 569.71467 308.00708 571.03108 313.25191 570.02344 318.3125 L 549.37109 421.57812 C 547.74229 429.61855 540.68029 435.40181 532.47656 435.41211 L 303.01953 435.41211 L 278.76562 297.72461 z "
         transform="translate(-142.66176,-159.20646)" />
    </g>
  </g>
</svg>
